<?xml version="1.0" encoding="UTF-8"?>
<svg id="Layer_1" data-name="Layer 1" xmlns="http://www.w3.org/2000/svg" viewBox="0 0 1105.83 637.34">
  <defs>
    <style>
      .cls-1 {
        fill: none;
        fill-rule: evenodd;
        stroke: #000;
        stroke-miterlimit: 10;
        stroke-width: .78px;
      }

      .cls-2 {
        fill: #c1c1c1;
      }
    </style>
  </defs>
  <path class="cls-1" d="M224.72,66.86l.82,1.65-.82-1.65Z"/>
  <path class="cls-1" d="M370.37,69.33c-7.54,3.98-20.82-.15-21.81,11.52.69.82,1.37,1.65,2.06,2.47,5.11.34,9.27-.2,13.58-1.65,1.48-3.59,6.83-8.71,6.17-12.34Z"/>
  <path class="cls-1" d="M380.65,80.43c-.82.27-1.65.55-2.47.82v.41l.41.41,4.53.41v-.41c-.27-.41-.55-.82-.82-1.23-.55-.14-1.1-.27-1.65-.41Z"/>
  <path class="cls-1" d="M803.2,364.74c-.41.41-.82.82-1.23,1.23l.41,1.23.82.41c.55-.27,1.1-.55,1.65-.82v-1.65l-1.65-.41Z"/>
  <path class="cls-2" d="M808.55,569.95h-507.88v65.08h-105.69L-2.67,351.12v-151.22c72.39,0,132.37-45.98,143.26-106.16h73.53L294.75,0h502.2l80.7,93.74h73.44c10.88,60.18,70.95,106.16,143.34,106.16,2.83,0,5.74-.05,8.56-.24v152.14l-195.61,283.24h-98.84v-65.08Z"/>
</svg>