<?xml version="1.0" encoding="UTF-8"?>
<svg id="Layer_1" data-name="Layer 1" xmlns="http://www.w3.org/2000/svg" viewBox="0 0 1168.71 973.93">
  <defs>
    <style>
      .cls-1 {
        fill: none;
        fill-rule: evenodd;
        stroke: #000;
        stroke-miterlimit: 10;
        stroke-width: .78px;
      }

      .cls-2 {
        fill: #c1c1c1;
      }
    </style>
  </defs>
  <path class="cls-1" d="M257.53,403.45l.82,1.65-.82-1.65Z"/>
  <path class="cls-1" d="M403.18,405.91c-7.54,3.98-20.82-.15-21.81,11.52.69.82,1.37,1.65,2.06,2.47,5.11.34,9.27-.2,13.58-1.65,1.48-3.59,6.83-8.71,6.17-12.34Z"/>
  <path class="cls-1" d="M413.47,417.02c-.82.27-1.65.55-2.47.82v.41l.41.41,4.53.41v-.41c-.27-.41-.55-.82-.82-1.23-.55-.14-1.1-.27-1.65-.41Z"/>
  <path class="cls-1" d="M836.02,701.33c-.41.41-.82.82-1.23,1.23l.41,1.23.82.41c.55-.27,1.1-.55,1.65-.82v-1.65c-.55-.14-1.1-.27-1.65-.41Z"/>
  <path class="cls-2" d="M364.64,56.34h415.99V0h218.64l166.69,246.72v132.4c-2.38-.15-4.7-.2-7.07-.2-65.61,0-118.85,48.81-118.85,109.01s53.24,109.06,118.85,109.06c2.38,0,4.7-.1,7.07-.2v131.81l-160.21,245.33h-213.03v-56.34h-415.94v56.34h-214.9L0,728.01v-131.01c65.61,0,118.79-48.86,118.79-109.06S65.61,378.92,0,378.92v-128.44L155.4,0h209.24v56.34Z"/>
</svg>